<?xml version="1.0" encoding="utf-8"?>
<!-- Generator: Adobe Illustrator 16.0.0, SVG Export Plug-In . SVG Version: 6.00 Build 0)  -->
<!DOCTYPE svg PUBLIC "-//W3C//DTD SVG 1.1//EN" "http://www.w3.org/Graphics/SVG/1.1/DTD/svg11.dtd">
<svg version="1.1" id="Isolation_Mode" xmlns="http://www.w3.org/2000/svg" xmlns:xlink="http://www.w3.org/1999/xlink" x="0px"
	 y="0px" width="841.89px" height="595.276px" viewBox="0 0 841.89 595.276" enable-background="new 0 0 841.89 595.276"
	 xml:space="preserve">
<path fill="#FFFFFF" d="M664.562,275.441c-0.936-0.638-0.849-1.911-1.554-2.715c-4.52-1.293-8.439-1.574-12.218-1.665
	c-0.036,0.15-0.072,0.298-0.105,0.429c-1.571-0.695-2.436-0.149-3.776-0.468c-4.629,0.507-9.571,0.43-14.44,0.526
	c-3.374,0.409-7.224,0.038-10.526,0.597c-2.204,0.226-4.342,0.581-6.951,0.078c-0.195,0.503-0.831,0.183-1.347,0.13
	c-0.508,0.955-2.24-0.188-2.133,1.76c-0.882-0.019-1.008-0.564-1.536-0.825c-1.182-0.636-1.358,0.431-2.578-0.207
	c-4.146,0.527-8.738,0.246-12.762,0.956c-1.133,0.206-3.779-0.02-5.42,0.936c-1.255-0.372-2.56,0.468-3.286-0.806
	c0.636-1.104,2.277-0.487,3.568-0.487c1.077-0.767,3.177,0.226,4.41-0.262c4.114-1.48,9.498-1.441,14.795-2.303
	c0.777-0.468,1.978-0.242,3.091-0.15c0.882-0.281,1.679-0.729,2.756-0.671c8.152-0.806,17.919-1.818,26.248-3.091
	c6.693-1.047,16.241-0.993,20.146-2.793c1.006-0.469,2.011-0.84,2.311-2.658c-0.688-2.884-2.897-5.487-6.107-5.657
	c-0.268-0.054-0.55-0.13-0.813-0.202c0.6-2.885-2.346-3.429-1.11-6.705c2.401-0.695,5.102-0.882,7.662-1.311
	c1.923-2.904-1.095-4.403-1.028-7.154c-2.399-0.188-4.199-0.188-6.247-1.104c-1.554,0.729-3.882,0.168-6.037-0.135
	c-2.224,0.416-6.232,0.921-8.193-0.202c1.892-1.163,4.202-1.649,6.834-1.52c1.536-0.766,3.618-0.636,5.102-1.479
	c0.937-4.944-1.887-8.162-7.361-7.809c-2.137,0.752-6.726,0.488-7.625-2.845c-0.213-1.106-0.937-1.853-0.55-3.353
	c1.449-0.318,2.79-0.845,4.501-0.694c7.574-1.274,15.536-1.872,22.265-4.568c1.182-2.638-1.041-3.033-0.585-5.205
	c-0.774-1.929-2.733-0.823-4.82-1.668c-4.006,0.357-8.421,0.019-12.604,0.077c-3.546-0.357-8.402,1.702-11.067-0.939
	c0.033-0.131,0.069-0.281,0.105-0.431c-0.318-5.821-6.866-3.294-11.229-4.176c-1.551,0.3-3.106,0.675-5.207,0.077
	c0.987-1.722,3.393-1.05,3.846-3.632c0.41-1.914-1.691-2.116-1.269-4.008c-0.141-0.039-0.3-0.076-0.423-0.096
	c2.771-4.624,1.992-9.869-3.109-11.367c2.401-2.49,0.691-4.326,0.728-7.191c-0.601-1.535-2.81-2.884-4.646-2.527
	c-1.448-0.074-2.384,0.732-4.307-0.151c-0.846-2.788-0.514-6.347-2.965-8.107c-1.768-1.52-3.991-0.526-6.569-1.63
	c-5.155,0.675-13.276,1.554-13.576-5.243c-3.371-1.369-4.907,0.41-7.803-0.111c-4.041-0.135-7.661,0.483-11.739,0.279
	c-1.817,0.71-3.938,0.879-6.233,0.729c-7.467,0.656-14.686,1.707-22.507,1.742c-1.713,0.263-2.86,1.518-5.314,0.507
	c-8.049,0.414-15.676,1.609-23.833,1.87c-3.071,0.527-6.267,0.864-9.708,0.771c0.987-1.35,2.646-1.481,4.288-1.668
	c17.936-5.131,37.782-7.003,57.201-9.627c0.6-3.237-0.551-5.353-2.351-7.041c-31.722,5.676-65.85,6.068-98.508,10.076
	c0.036-0.224,0.09-0.411,0.105-0.638c-1.71-8.388-12.164-9.12-19.737-7.696c-4.376,0.621-8.208,2.193-12.852,2.323
	c-4.378,0.618-8.37,1.872-12.889,2.286c-0.846,0.936-2.751,0.035-3.969,0.392c-2.069,1.291-4.892,1.234-7.507,1.572
	c-2.469,1.143-5.788,0.901-8.721,1.253c-8.084,2.099-17.478,1.93-25.121,4.76c-0.582,0.224-1.127,0.449-1.996,0.17
	c-1.887,0.409-3.545,1.158-5.965,0.598c-3.336,0.897-6.92,1.331-10.717,1.441c-8.439,1.78-17.121,3.127-26.674,2.996
	c-1.379,0.057-2.12,1.181-3.988,0.375c-2.791,0.936-5.65,1.704-9.34,1.125c-1.927,0.579-4.537,0.035-6.588,0.41
	c-4.818,0.448-9.67,0.862-14.581,1.2c-5.046-1.2-7.874,1.497-12.567,0.955c-2.687,0.507-5.914,0.074-8.105,1.442
	c-0.246,0.502-0.759,0.487-0.9,1.143c-0.264,1.477,2.527,0.955,3.551,1.593c-0.459,1.981,1.781,2.151,3.246,2.88
	c1.01-0.71,2.828,0.019,4.47,0.414c0.05-0.227,0.086-0.431,0.122-0.656c1.25,0.299,2.47,0.617,3.705,0.917
	c1.5-1.029,3.533-1.159,5.984-0.561c1.059-0.882,3.532,0.657,4.609-0.225c4.361-0.638,8.738-1.217,13.787-0.692
	c1.8-0.505,3.195-1.744,5.988-0.564c3.705-1.141,8.578-0.356,12.566-1.012c0.391-1.422,2.664,0.395,3.832,0.285l6.02,2.208
	c-0.707,1.462-2.65,0.859-4.133,1.009c-1.445,0.227-2.469,1.18-4.605,0.245c-1.608,1.143-3.441,1.891-6.129,1.236
	c-2.732,0.076-4.359,2.136-7.979,0.751c-0.723,1.761-3.21,0.468-4.729,0.878c-4.961,0.526-9.356,1.987-14.707,1.837
	c-6.461,1.274-13.504,1.535-20.07,2.562c-6.901,0.488-12.888,2.585-20.073,2.585c-2.791,2.137-8.139-0.129-9.921,3.709
	c-1.341,6.873,7.662,11.817,13.61,8.933c0.426,0.096,0.849,0.187,1.236,0.298c3.037,0.993,4.642-0.448,7.68,0.544
	c0.213,0.039,0.408,0.094,0.6,0.151c1.149-1.067,3.868,0.598,5.242-0.077c0.759-1.365,3.515,0.602,5.069,0.584
	c-0.813,1.008-2.438,0.655-3.516,1.176c-1.977,0.546-4.359,0.357-6.601,0.433c-0.036,0.224-0.087,0.431-0.141,0.657
	c-9.234,0.709-17.865,2.449-26.799,3.631c-2.349,1.086-5.861,0.208-7.661,2.228c-1.642,4.606,1.905,5.826,2.577,8.915
	c7.467,1.687,14.033,1.836,20.424,1.668c1.238-0.882,3.089-0.734,5.225-0.077c3.019,0.375,4.716-1.515,8.421,0.018l0.991,4.385
	c-2.401,1.345-5.421,1.495-8.721,1.291c-9.057,1.911-19.137,2.061-28.194,3.99c-3.637,0.656-7.38,1.196-11.353,1.272
	c-0.741,0.86-1.851,1.029-3.354,0.542c-3.407,1.104-6.935,1.968-10.872,2.116c-4.202,1.761-10.19,1.313-10.667,6.984
	c-0.051,0.975,0.777,1.35,0.813,2.249c1.748,3.558,5.457,5.376,10.485,5.395c-0.172,1.795-1.659,1.365-2.874,1.347
	c-1.113,0.525-1.945,1.518-3.514,1.2c-2.454,8.107,3.229,10.616,10.576,10.916c3.369-0.692,7.148-0.372,9.057,0.207
	c-2.632,1.195-5.652,1.759-8.898,1.89c-6.393,1.65-13.312,2.455-20.214,3.241c-1.609-0.993-1.801,0.525-3.214-0.131
	c0.336,0.898,0.405,1.964-0.123,3.425c-2.366,0.077,0.246-3.559-2.156-1.929c-1.746,0.019-2.769,1.293-4.288,1.688
	c-0.831,2.04-0.249,3.163-0.39,4.737c1.396,0.936,1.291,2.865,2.35,4.045c6.743,1.929,12.603,2.378,18.287,2.49
	c0.055-0.208,0.091-0.43,0.141-0.657c2.386,1.071,3.673,0.246,5.706,0.734c6.919-0.752,14.35-0.638,21.624-0.786
	c5.065-0.638,10.839-0.039,15.799-0.884c3.284-0.372,6.48-0.878,10.418-0.129c0.282-0.749,1.236-0.281,1.995-0.208
	c0.759-1.403,3.337,0.319,3.178-2.639c1.359,0.039,1.533,0.86,2.328,1.254c1.782,0.955,2.066-0.675,3.852,0.281l-1.959,2.961
	c-1.169,0.729-2.951,0.372-4.61,0.221c-1.324,0.414-2.506,1.072-4.129,1.033c-12.236,1.162-26.871,2.697-39.387,4.626
	c-10.008,1.572-24.312,1.495-30.173,4.195c-1.5,0.671-3.036,1.254-3.492,3.932c1.059,4.363,4.343,8.237,9.18,8.501
	c0.405,0.11,0.81,0.207,1.233,0.318c-0.901,4.309,3.495,5.131,1.659,10.075c-3.619,1.01-7.642,1.311-11.49,1.948
	c-2.914,4.342,1.623,6.59,1.518,10.711c3.635,0.281,6.302,0.262,9.39,1.646c2.351-1.066,5.792-0.242,9.057,0.227
	c3.32-0.619,9.339-1.385,12.272,0.299c-2.843,1.74-6.288,2.455-10.259,2.248c-2.313,1.181-5.401,0.974-7.642,2.228
	c-1.395,7.417,2.823,12.285,11.049,11.74c3.196-1.14,10.098-0.729,11.421,4.232c0.318,1.65,1.396,2.809,0.814,5.021
	c-2.173,0.502-4.183,1.254-6.726,1.086c-11.37,1.872-23.287,2.788-33.385,6.814c-1.746,3.95,1.555,4.571,0.864,7.809
	c1.186,2.885,4.114,1.254,7.257,2.493c6.001-0.525,12.607-0.021,18.873-0.115c5.332,0.544,12.585-2.546,16.576,1.423
	c-0.036,0.188-0.072,0.414-0.141,0.636c0.477,8.748,10.308,4.93,16.806,6.275c2.367-0.468,4.697-0.993,7.838-0.111
	c-1.482,2.566-5.066,1.534-5.771,5.469l6.243,2.068c2.631,2.324,6.005,0.825,9.852,2.475c7.715-1.032,19.896-2.378,20.354,7.846
	c5.049,2.042,7.345-0.616,11.673,0.17c6.052,0.202,11.472-0.733,17.632-0.414c2.688-1.086,5.865-1.328,9.339-1.105
	c11.175-0.993,22.015-2.527,33.74-2.604c2.56-0.39,4.271-2.281,7.962-0.767l-44.518,8.565c-0.918,4.87,3.434,12.429,6.135,14.937
	c59.496-10.601,124.552-8.839,184.045-20.858c10.062-2.024,23.302-5.547,35.077-5.715c-0.495-4.139,1.218-9.738-1.854-12.17
	c-24.325,5.804-49.022,10.916-75.153,13.611c-3.741,1.408-10.274,1.798-13.821,0.675c1.287-1.403,2.788-2.45,5.028-2.19
	c1.377-1.254,3.729-0.843,5.529-1.368c2.01-1.047,4.323-1.607,6.866-1.74c0.177-0.619,0.882-0.318,1.395-0.339
	c1.715-1.272,4.588-0.54,6.247-1.871c39.071-9.98,74.337-10.731,113.139-21.159c0.3-3.223,7.354-13.653,4.403-16.33l12.714-5.781
	c0.178-0.333,0.531-0.333,0.637-0.768c0.159-0.975-1.71-0.617-2.382-1.065c0.3-1.312-1.2-1.442-2.175-1.91
	c-0.669,0.468-1.887-0.019-2.964-0.28c-0.051,0.149-0.068,0.28-0.104,0.43c-0.814-0.188-1.643-0.41-2.455-0.617
	c-1.005,0.689-2.364,0.807-4.007,0.372c-0.708,0.603-2.35-0.431-3.055,0.153c-2.932,0.429-5.861,0.82-9.216,0.468
	c-1.183,0.338-2.119,1.139-3.988,0.372c-2.474,0.767-5.72,0.227-8.369,0.656c-0.282,0.955-1.801-0.224-2.577-0.168l1.817-2.302
	c1.077-0.788,2.314-1.274,4.078-0.825c1.854-0.076,2.934-1.403,5.315-0.506c0.495-1.162,2.154-0.318,3.178-0.598
	c3.3-0.32,6.248-1.293,9.798-1.221c4.325-0.824,9.003-1.008,13.4-1.703c4.604-0.338,8.578-1.723,13.38-1.702
	c1.874-1.424,5.437,0.073,6.621-2.493c0.899-4.607-5.103-7.881-9.075-5.938c-0.264-0.092-0.563-0.168-0.828-0.221
	c-2.015-0.676-3.092,0.297-5.12-0.357c-0.141-0.039-0.264-0.077-0.404-0.112c-0.778,0.71-2.578-0.396-3.496,0.035
	c-0.514,0.938-2.315-0.392-3.374-0.372c0.546-0.675,1.604-0.43,2.333-0.786c1.322-0.377,2.91-0.246,4.41-0.28
	c0.035-0.134,0.054-0.283,0.108-0.453c6.144-0.449,11.898-1.625,17.882-2.396c1.556-0.747,3.883-0.148,5.083-1.496
	c1.096-3.091-1.269-3.877-1.71-5.956c-4.978-1.124-9.356-1.215-13.611-1.085c-0.831,0.561-2.082,0.469-3.497,0.038
	c-2.014-0.265-3.159,1.009-5.633-0.019c-3.688,0.053-7.079,0.69-10.943,0.449c-1.905,0.729-4.607,0.148-6.339,1.195
	c-0.178,0.486-0.828,0.169-1.323,0.134c-3.564-1.122-6.866,1.459-9.816-0.64c4.466-1.665,9.889-1.833,15.714-2.488
	c4.129-0.357,7.766-1.515,12.075-1.593c1.569-0.878,3.638-0.993,5.807-0.824c6.056-1.293,12.764-1.403,18.801-2.677
	c2.438-0.449,4.928-0.807,7.575-0.863c0.513-0.561,1.254-0.672,2.24-0.337c2.279-0.749,4.625-1.328,7.258-1.424
	c2.805-1.177,6.797-0.877,7.097-4.659c0.054-0.637-0.513-0.901-0.531-1.5c-1.164-2.378-3.635-3.597-7.007-3.613
	c0.123-1.161,1.128-0.9,1.941-0.882c0.723-0.356,1.286-1.013,2.346-0.806c1.646-5.41-2.169-7.08-7.061-7.282
	c-2.278,0.468-4.783,0.241-6.037-0.135c1.748-0.821,3.745-1.158,5.914-1.272c4.291-1.086,8.881-1.608,13.489-2.133
	c1.074,0.636,1.2-0.358,2.169,0.054c-0.264-0.599-0.3-1.289,0.055-2.283c1.587-0.057-0.159,2.379,1.445,1.292
	c1.169-0.019,1.838-0.862,2.861-1.123C664.844,277.22,664.472,276.473,664.562,275.441z M291.453,207.032h57.785v12.969h-57.785
	V207.032z M349.25,351.04h-57.797v-12.726h57.797V351.04z M349.25,334.983h-57.797v-12.736h57.797V334.983z M339.041,256.729v12.755
	h-39.107v-12.755H339.041z M299.934,253.118v-12.726h39.107v12.726H299.934z M339.041,273.1v12.789h-39.107V273.1H339.041z
	 M339.041,289.499v12.736h-39.107v-12.736H339.041z M339.041,305.863v12.742h-39.107v-12.742H339.041z M349.25,236.685h-57.797
	v-12.953h57.797V236.685z M389.106,207.034h65.518v12.969h-90.986C363.638,220.003,370.713,207.034,389.106,207.034z
	 M454.785,240.392v10.86h-34.467v-10.86H454.785z M360.4,227.595c0.033-1.132,1.262-3.178,1.75-3.865h92.474v12.952H360.4V227.595z
	 M399.001,240.392v12.726h-38.565v-12.726H399.001z M360.44,256.72h38.556v7.703h39.146c5.785,1.738,10.674,5.203,10.674,5.203
	l-88.41-0.081L360.44,256.72z M430.808,350.958h-67.581v-12.954h93.816C457.043,338.004,449.789,350.958,430.808,350.958z
	 M363.197,317.973v-10.877h36.613v10.877H363.197z M459.283,332.567c-0.479,1.135-0.443,1-0.914,1.705h-95.143v-12.953h96.057
	V332.567z M459.34,318.148h-39.119v-12.779h39.119V318.148z M459.4,289.644v11.871h-39.264v-8.331H382.36
	c-5.778-1.407-9.446-4.342-9.446-4.342H459.4V289.644z M369.133,285.884c-5.664-5.034-7.901-12.789-7.901-12.789h91.544
	c4.708,4.628,6.843,12.789,6.843,12.789H369.133z M461.333,207.035h120.512v12.969H461.333V207.035z M461.129,223.732h120.729
	v12.953H461.129V223.732z M501.957,302.235v-12.736h39.078v12.736H501.957z M541.035,305.863v12.742h-39.078v-12.742H541.035z
	 M501.957,285.889V273.1h39.078v12.789H501.957z M501.957,269.484v-12.755h39.078v12.755H501.957z M501.957,253.118v-12.726h39.078
	v12.726H501.957z M500.414,251.397h-0.054c0.018,0,0,0,0.018-0.019C500.378,251.378,500.396,251.397,500.414,251.397z
	 M487.707,250.834h-26.829v-10.442h26.829V250.834z M550.51,351.04h-57.721v-12.726h57.721V351.04z M550.51,334.983h-57.721v-12.736
	h57.721V334.983z M582.17,250.834h-26.811v-10.442h26.811V250.834z"/>
</svg>
